<svg id="Layer_1" data-name="Layer 1" xmlns="http://www.w3.org/2000/svg" viewBox="0 0 512 512"><title>ico-gear</title><path d="M256,27.56h1.23l21,65.05,4,12.57,12.8,3.3A155.29,155.29,0,0,1,328,121.11l12.2,6.35,11.65-7.31,56.58-35.52c1,.88,2,1.77,3,2.66l-26.55,65.32-4.72,11.61,6.82,10.5a155.27,155.27,0,0,1,13.73,26.36l5.21,12.86,13.75,1.91,65.81,9.1c.38,2.58.73,5.16,1,7.75l-63.88,33.79L412,272.11,410.09,284a154.49,154.49,0,0,1-4.74,20.77l-3.93,13,9.1,10.06,45.15,49.93q-3.07,5.19-6.42,10.22l-71-15.25-11.65-2.5-9,7.76c-3.54,3-7.25,5.94-11,8.63l-10.51,7.51.48,12.9,2.56,69.22q-6.89,2.64-13.93,4.84l-43.83-56.36L273.82,415l-12.26.42c-2.16.08-3.93.11-5.56.11s-3.4,0-5.56-.11L238.18,415l-7.53,9.67-43.83,56.36q-7-2.19-13.93-4.84L175.45,407l.48-12.9-10.51-7.51c-3.75-2.69-7.46-5.59-11-8.63l-9-7.76-11.65,2.5-71,15.25q-3.34-5-6.42-10.22l45.15-49.93,9.1-10.06-3.93-13A154.49,154.49,0,0,1,101.91,284L100,272.11l-10.62-5.62L25.54,232.7c.3-2.59.65-5.17,1-7.75l65.81-9.1,13.75-1.91,5.21-12.86a155.27,155.27,0,0,1,13.73-26.36l6.82-10.5-4.72-11.61L100.62,87.29c1-.89,2-1.78,3-2.66l56.58,35.52,11.65,7.31,12.2-6.35a155.29,155.29,0,0,1,32.88-12.63l12.8-3.3,4.05-12.57,21-65H256m0,354a122,122,0,1,0-86.27-35.73A121.22,121.22,0,0,0,256,381.55m0-378q-9.56,0-18.93.69l-26.13,81a179.12,179.12,0,0,0-38,14.58L101.84,55.17A257.61,257.61,0,0,0,72.28,81.3l32.66,80.35a179.89,179.89,0,0,0-15.85,30.42L6.16,203.55a255.21,255.21,0,0,0-5.83,43L78.2,287.7a177.79,177.79,0,0,0,5.48,24L27.1,374.27a256.27,256.27,0,0,0,25.28,40.44l86.4-18.56q6.12,5.25,12.69,10l-3.18,85.73a254.36,254.36,0,0,0,47.62,16.61l53.69-69c2.12.07,4.26.12,6.4.12s4.28-.05,6.4-.12l53.69,69a254.36,254.36,0,0,0,47.62-16.61l-3.18-85.73q6.57-4.69,12.69-10l86.4,18.56a256.27,256.27,0,0,0,25.28-40.44l-56.58-62.58a177.79,177.79,0,0,0,5.48-24l77.87-41.19a256.24,256.24,0,0,0-5.83-43l-82.93-11.48a179.89,179.89,0,0,0-15.85-30.42L439.72,81.3a257.61,257.61,0,0,0-29.56-26.13L339,99.82a179.12,179.12,0,0,0-38-14.58l-26.13-81q-9.37-.68-18.93-.69Zm0,354a98,98,0,1,1,98-98,98,98,0,0,1-98,98Z"/></svg>