<svg xmlns="http://www.w3.org/2000/svg">
	<symbol viewBox="0 0 512 512" id="info">
		<title>Info</title>
		<path d="M256,24a232.07,232.07,0,0,1,90.3,445.78A232.07,232.07,0,0,1,165.7,42.22,230.57,230.57,0,0,1,256,24m0-24C114.62,0,0,114.62,0,256S114.62,512,256,512,512,397.38,512,256,397.38,0,256,0Z"/><rect x="244" y="225.5" width="24" height="175"/><path d="M256,201a20,20,0,1,1,20-20A20,20,0,0,1,256,201Z"/>
	</symbol>
	<symbol viewBox="0 0 512 512" id="backspace">
		<title>Backspace</title>
		<path d="M487.5,110V402H171.83L33.55,256,171.83,110H487.5m24-24h-350L.5,256l161,170h350V86Z"/><polygon points="441.99 163.49 425.01 146.51 333.5 238.03 241.99 146.51 225.01 163.49 316.53 255 225.01 346.51 241.99 363.49 333.5 271.97 425.01 363.49 441.99 346.51 350.47 255 441.99 163.49"/>
	</symbol>
</svg>